# xmcd CD database file
#
# Track frame offsets:
#	150
#	24162
#	43489
#	60911
#	84937
#	106889
#	125751
#	146315
#	172442
#	191900
#	213403
#	238385
#
# Disc length: 3569 seconds
#
# Revision: 0
# Processed by: cddbd v1.5.2PL0 Copyright (c) Steve Scherf et al.
# Submitted via: CDex 1.51
#
DISCID=af0def0c
DTITLE=Amanda Dycus - Paris Moon
DYEAR=2003
DGENRE=Country
TTITLE0=Bound
TTITLE1=Little House In The Country
TTITLE2=Hummingbird
TTITLE3=Landslide
TTITLE4=Paris Moon
TTITLE5=Tin Soldier
TTITLE6=One Step Back
TTITLE7=Who Really Knows
TTITLE8=Nothing At All
TTITLE9=Oklahoma
TTITLE10=Running On Empty Dreams
TTITLE11=Who Will I Love In Heaven
EXTD=YEAR: 2003
EXTT0=
EXTT1=
EXTT2=
EXTT3=
EXTT4=
EXTT5=
EXTT6=
EXTT7=
EXTT8=
EXTT9=
EXTT10=
EXTT11=
PLAYORDER=
